:SAMPLES-PER-SECOND 30
:FULLY-SPECIFIED
:DEGREES
288
root  34.2556 37.2419 -4.53988 6.01869 77.3656 8.38895
RightUpLeg  -17.7029 -8.97925 -10.029
RightLeg  70.8651 -2.90673 -10.1674
RightFoot  2.80256 -0.245615 2.17398
RightToes  0.000482159 0.542163 -0.142577
Spine  33.0646 0.706859 3.10089
Spine1  11.5177 3.0995 -4.82887
HEad  -8.79779 -2.47368 -1.47015
LeftShoulder1  9.55147 -16.394 -41.641
LeftArm  -19.4046 -2.57257 -26.8999
LeftForeArm  33.8666 -32.3947 -5.22136
LeftHand  -0.25398 0.0180481 5.50724
RightShoulder  6.45911 12.3151 34.8652
RightArm  -9.20491 31.8238 34.0961
RightForeArm  12.2715 6.73185 7.43582
RightHand  -0.871798 2.67947 -12.774
LeftUpLeg  -30.5688 21.9123 -6.7644
LeftLeg  23.2343 -0.487447 0.104499
LeftFoot  9.16388 -1.25767 6.63649
LeftToes  1.06246e-005 4.65854e-005 -8.18503e-006
289
root  34.8304 37.5542 -4.6751 4.20576 77.5458 4.98232
RightUpLeg  -24.1066 -11.3592 -7.56482
RightLeg  68.6929 -3.51373 -10.6389
RightFoot  0.903528 -0.408087 3.83388
RightToes  0.000482159 0.542163 -0.142577
Spine  35.8222 0.118011 4.22692
Spine1  11.9694 2.93594 -4.94888
HEad  -11.5721 -3.23036 -1.38319
LeftShoulder1  9.58952 -17.1637 -40.1255
LeftArm  -19.1401 -8.08954 -28.0813
LeftForeArm  35.7947 -31.4578 -4.89524
LeftHand  -0.25398 0.0180481 5.50724
RightShoulder  6.54922 12.9066 33.9479
RightArm  -11.0179 36.6342 34.6355
RightForeArm  13.4115 2.70526 6.62719
RightHand  -0.833694 2.33773 -12.7304
LeftUpLeg  -30.7089 22.2358 -6.85228
LeftLeg  22.1866 -0.895725 -0.070991
LeftFoot  8.41461 -1.27324 7.00749
LeftToes  1.06246e-005 4.65854e-005 -8.18503e-006
290
root  35.3177 37.804 -4.76384 3.67863 78.2457 2.96884
RightUpLeg  -29.1512 -13.8007 -4.76635
RightLeg  63.0787 -5.22357 -11.5663
RightFoot  0.164679 -0.357672 3.54465
RightToes  0.000482159 0.542163 -0.142577
Spine  38.924 -0.586442 5.08357
Spine1  12.1068 2.6813 -5.15289
HEad  -14.3012 -4.0343 -1.07744
LeftShoulder1  9.61852 -17.9458 -38.6359
LeftArm  -19.3881 -13.8727 -28.9357
LeftForeArm  36.324 -30.0167 -4.53574
LeftHand  -0.25398 0.0180481 5.50724
RightShoulder  6.52576 13.247 32.9997
RightArm  -13.2399 40.4179 34.3841
RightForeArm  12.6754 1.4546 6.07336
RightHand  -0.91571 2.77387 -13.2423
LeftUpLeg  -30.8688 21.9509 -7.20197
LeftLeg  20.9127 -1.30897 -0.222633
LeftFoot  8.20089 -1.32524 7.39259
LeftToes  1.06246e-005 4.65854e-005 -8.18503e-006
291
root  35.7747 38.0186 -4.78572 4.28629 79.137 1.98018
RightUpLeg  -32.6425 -15.8127 -1.97909
RightLeg  53.9247 -7.7333 -11.6261
RightFoot  -1.12814 -0.3201 3.54441
RightToes  0.000482159 0.542163 -0.142577
Spine  41.7614 -1.14588 5.61148
Spine1  12.3346 2.48539 -5.1501
HEad  -17.1339 -4.84534 -0.758298
LeftShoulder1  9.6651 -18.794 -37.1849
LeftArm  -20.1158 -19.9445 -29.3724
LeftForeArm  35.7851 -28.1769 -4.15381
LeftHand  -0.25398 0.0180481 5.50724
RightShoulder  6.46534 13.4781 32.1117
RightArm  -15.5078 43.8132 32.8909
RightForeArm  10.5176 2.03697 5.87016
RightHand  -1.13569 3.94455 -14.3742
LeftUpLeg  -31.337 21.5701 -7.73666
LeftLeg  19.6843 -2.01644 -0.47148
LeftFoot  8.52831 -1.34011 7.34262
LeftToes  1.06246e-005 4.65854e-005 -8.18503e-006
292
root  36.2705 38.1836 -4.72589 6.53325 80.0749 2.1768
RightUpLeg  -34.9869 -17.705 0.676557
RightLeg  41.2568 -8.86298 -8.63943
RightFoot  -2.46416 -0.445859 5.44651
RightToes  0.000482159 0.542163 -0.142577
Spine  43.8352 -1.51537 5.85094
Spine1  12.6594 2.29423 -4.91149
HEad  -19.9227 -5.59493 -0.388417
LeftShoulder1  9.63126 -19.5723 -35.6062
LeftArm  -21.3996 -26.1887 -29.5967
LeftForeArm  35.4229 -26.1 -3.72214
LeftHand  -0.25398 0.0180481 5.50724
RightShoulder  6.34117 13.625 31.0513
RightArm  -17.9939 47.3989 30.4287
RightForeArm  7.8756 2.93632 5.82713
RightHand  -1.49815 5.45798 -16.2967
LeftUpLeg  -32.4675 21.4078 -8.61855
LeftLeg  18.9057 -3.05599 -0.837908
LeftFoot  8.42485 -1.30735 7.19826
LeftToes  1.06246e-005 4.65854e-005 -8.18503e-006
293
root  36.805 38.2529 -4.5593 13.252 81.3604 6.71631
RightUpLeg  -36.6254 -20.3272 3.24849
RightLeg  27.3699 -6.07148 -3.77231
RightFoot  -0.938189 -0.499958 5.52532
RightToes  0.000482159 0.542163 -0.142577
Spine  45.6916 -1.8061 5.48115
Spine1  12.4827 1.82154 -4.40603
HEad  -22.2273 -6.2791 0.122863
LeftShoulder1  9.52592 -20.1663 -34.1282
LeftArm  -23.1077 -32.3598 -29.4238
LeftForeArm  35.3329 -23.5157 -3.22446
LeftHand  -0.25398 0.0180481 5.50724
RightShoulder  6.17952 13.7338 29.8632
RightArm  -20.817 50.8194 27.1687
RightForeArm  5.12733 3.37294 5.8147
RightHand  -1.97835 7.13405 -18.5959
LeftUpLeg  -33.9369 20.8848 -10.0577
LeftLeg  18.6894 -4.08142 -1.21068
LeftFoot  7.81561 -1.27833 7.28194
LeftToes  1.06246e-005 4.65854e-005 -8.18503e-006
294
root  37.3054 38.2427 -4.28858 27.3957 83.1513 19.1371
RightUpLeg  -37.6484 -21.5438 3.92282
RightLeg  17.7217 -3.14265 -0.425568
RightFoot  3.74079 -0.131173 1.30937
RightToes  0.000482159 0.542163 -0.142577
Spine  47.8042 -2.16102 4.93889
Spine1  11.8442 0.950597 -3.50033
HEad  -23.9846 -7.12819 1.00028
LeftShoulder1  9.52458 -20.842 -33.0038
LeftArm  -25.3859 -38.4874 -28.3866
LeftForeArm  34.7316 -20.2085 -2.80504
LeftHand  -0.25398 0.0180481 5.50724
RightShoulder  6.0427 13.8989 28.7119
RightArm  -24.4402 53.3247 22.836
RightForeArm  2.41298 3.70603 5.74219
RightHand  -2.47828 8.78737 -20.5324
LeftUpLeg  -35.0069 19.0287 -11.4474
LeftLeg  18.7473 -4.50475 -1.37493
LeftFoot  7.42118 -1.24754 7.26631
LeftToes  1.06246e-005 4.65854e-005 -8.18503e-006
295
root  37.7313 38.2028 -3.97374 50.5253 84.8264 40.9438
RightUpLeg  -38.1277 -18.1287 0.425087
RightLeg  15.77 -6.7504 0.764799
RightFoot  7.73558 0.683379 -3.82179
RightToes  0.000482159 0.542163 -0.142577
Spine  49.8146 -2.71319 5.21925
Spine1  11.5068 0.0775279 -2.59167
HEad  -25.7983 -8.39439 2.22923
LeftShoulder1  9.67208 -21.9532 -31.8581
LeftArm  -28.273 -44.698 -26.526
LeftForeArm  33.151 -16.7453 -2.48453
LeftHand  -0.25398 0.0180481 5.50724
RightShoulder  5.8333 13.9354 27.3978
RightArm  -29.4855 54.987 17.5028
RightForeArm  0.268475 4.30311 5.40012
RightHand  -2.7842 9.80569 -21.4958
LeftUpLeg  -35.6937 15.842 -11.9902
LeftLeg  19.0022 -4.09114 -1.23987
LeftFoot  7.24632 -1.18655 6.97068
LeftToes  1.06246e-005 4.65854e-005 -8.18503e-006
296
root  38.1435 38.1528 -3.67383 78.7437 85.5713 67.6671
RightUpLeg  -41.0406 -20.9359 2.16051
RightLeg  18.3366 -4.30067 -0.205005
RightFoot  8.76322 1.08268 -5.77474
RightToes  0.000482159 0.542163 -0.142577
Spine  51.9721 -3.57399 6.23281
Spine1  10.6743 -0.337364 -2.53197
HEad  -27.7361 -9.77824 3.41534
LeftShoulder1  9.76277 -23.2973 -30.2486
LeftArm  -31.1536 -50.2435 -24.2167
LeftForeArm  30.5969 -14.0542 -2.17283
LeftHand  -0.25398 0.0180481 5.50724
RightShoulder  5.50839 13.5848 26.1412
RightArm  -35.4442 56.3943 11.5281
RightForeArm  -0.692945 4.71402 4.84471
RightHand  -2.66405 9.67024 -20.7643
LeftUpLeg  -36.7161 12.6573 -11.9299
LeftLeg  19.6088 -3.47666 -1.04846
LeftFoot  6.75793 -1.11796 6.75244
LeftToes  1.06246e-005 4.65854e-005 -8.18503e-006
297
root  38.5818 38.145 -3.38679 100.14 85.4361 87.1207
RightUpLeg  -44.2736 -24.4905 5.02378
RightLeg  20.3276 -1.58521 -0.797719
RightFoot  8.16385 0.986641 -5.4074
RightToes  0.000482159 0.542163 -0.142577
Spine  54.1478 -4.32119 6.97419
Spine1  9.61524 -0.403436 -2.69372
HEad  -29.9068 -10.6327 4.12594
LeftShoulder1  9.69004 -24.3501 -28.5534
LeftArm  -34.6411 -54.8818 -21.1161
LeftForeArm  27.6147 -12.3222 -1.79629
LeftHand  -0.25398 0.0180481 5.50724
RightShoulder  5.21172 13.3406 24.7979
RightArm  -42.2024 57.9068 4.48208
RightForeArm  -0.353339 4.37048 4.18651
RightHand  -2.11679 8.71685 -17.7027
LeftUpLeg  -38.1248 10.804 -11.9216
LeftLeg  19.92 -3.49457 -1.07601
LeftFoot  6.25122 -1.07172 6.67138
LeftToes  1.06246e-005 4.65854e-005 -8.18503e-006
